<svg xmlns="http://www.w3.org/2000/svg" viewBox="0 0 256 256" fill="none">
	<defs>
		<linearGradient id="ring" x1="54" y1="72" x2="206" y2="184" gradientUnits="userSpaceOnUse">
			<stop offset="0" stop-color="#b95fff" />
			<stop offset="1" stop-color="#4dc5ff" />
		</linearGradient>
		<linearGradient id="leftUser" x1="36" y1="78" x2="96" y2="112" gradientUnits="userSpaceOnUse">
			<stop offset="0" stop-color="#cf7dff" />
			<stop offset="1" stop-color="#9e58ff" />
		</linearGradient>
		<linearGradient id="rightUser" x1="154" y1="170" x2="220" y2="216" gradientUnits="userSpaceOnUse">
			<stop offset="0" stop-color="#6ad2ff" />
			<stop offset="1" stop-color="#46b7ff" />
		</linearGradient>
		<radialGradient id="playGlow" cx="0" cy="0" r="1" gradientTransform="translate(128 128) rotate(90) scale(64)" gradientUnits="userSpaceOnUse">
			<stop offset="0" stop-color="#2f2474" />
			<stop offset="1" stop-color="#16153d" />
		</radialGradient>
	</defs>

	<circle cx="128" cy="128" r="72" fill="url(#playGlow)" />

	<path d="M58 126a70 70 0 0 1 15-44" stroke="url(#ring)" stroke-width="10" stroke-linecap="round" />
	<path d="M183 71a70 70 0 0 1 21 45" stroke="url(#ring)" stroke-width="10" stroke-linecap="round" />
	<path d="M200 133a70 70 0 0 1-17 41" stroke="url(#ring)" stroke-width="10" stroke-linecap="round" />
	<path d="M167 188a70 70 0 0 1-79-10" stroke="url(#ring)" stroke-width="10" stroke-linecap="round" />

	<path d="M108 96a12 12 0 0 1 18-10l42 26a12 12 0 0 1 0 20l-42 26a12 12 0 0 1-18-10V96z" fill="#f5f4ff" />

	<circle cx="74" cy="83" r="14" fill="url(#leftUser)" />
	<ellipse cx="74" cy="104" rx="21" ry="11" fill="url(#leftUser)" />

	<circle cx="184" cy="176" r="13" fill="url(#rightUser)" />
	<ellipse cx="184" cy="197" rx="20" ry="11" fill="url(#rightUser)" />

	<circle cx="53" cy="127" r="6" fill="#9f56ff" />
	<circle cx="201" cy="155" r="6" fill="#4dc5ff" />
</svg>